<svg id="Calque_1" data-name="Calque 1" xmlns="http://www.w3.org/2000/svg" width="283.46" height="96.21" viewBox="0 0 283.46 96.21"><defs><style>.cls-1{fill:#0e4d76;}</style></defs><path class="cls-1" d="M3.23,34.75a71.07,71.07,0,0,1-1.58-15,80,80,0,0,1,1.58-16A375.44,375.44,0,0,1,42.8,1.74c13.05,0,26.69.33,40.16,1.42V14.63c-10.14-.58-20-1.16-32.43-1.16-11.64,0-21,.5-30.59,1.25a34,34,0,0,0-.42,5.16,30.33,30.33,0,0,0,.42,4.66c20.87,1.41,42,.83,63.52,4.57A76.56,76.56,0,0,1,85,44.66,79.32,79.32,0,0,1,83.46,61.2a363.68,363.68,0,0,1-40.24,2.08c-13.3,0-26.6-.33-40-1.41V50.48c10.31.58,20.45,1,33.26,1,11.64,0,21-.41,30.1-1.08a31.88,31.88,0,0,0,.5-5.82,29.9,29.9,0,0,0-.5-5.4C45.47,38,24.69,38.1,3.24,34.77Z" transform="translate(-1.65 -1.74)"/><path class="cls-1" d="M159.68,45.29h19.69a144.73,144.73,0,0,0,1.57-20.64A144.73,144.73,0,0,0,179.37,4c-41.88-5-83.46,0-83.46,0V63.27H114.2V41.94L103,33H114.2V14.55S124.37,14,137.53,14s24.14.58,24.14.58a53.85,53.85,0,0,1,.66,9.26,52.62,52.62,0,0,1-.66,9.2H122.33l38,30.26H181l-21.3-18Z" transform="translate(-1.65 -1.74)"/><path class="cls-1" d="M257.34,2.69l27.77,60.39H266.9L261.08,50.7H210.53l-5.82,12.38H186.5L214.27,2.69c7.82-.67,14.3-.84,21.53-.84s13.72.17,21.53.84ZM227.08,15.41,216.44,38.15h38.74L244.54,15.41c-2-.25-6.07-.42-8.73-.42s-6.73.17-8.73.42Z" transform="translate(-1.65 -1.74)"/><path class="cls-1" d="M4.76,78.25v18.3a1.09,1.09,0,0,1-1.12,1.22c-.69,0-1.09-.46-1.09-1.22V78.25c0-.76.4-1.22,1.09-1.22A1.09,1.09,0,0,1,4.76,78.25Z" transform="translate(-1.65 -1.74)"/><path class="cls-1" d="M34.82,78.22V96.43a1.26,1.26,0,0,1-1.31,1.34,1.45,1.45,0,0,1-1.19-.55L19.1,80.72H19V96.59a1.09,1.09,0,1,1-2.18,0V78.41A1.24,1.24,0,0,1,18.14,77a1.45,1.45,0,0,1,1.19.55l13.25,16.5h.06V78.22a1.09,1.09,0,1,1,2.18,0Z" transform="translate(-1.65 -1.74)"/><path class="cls-1" d="M62.72,77.22a1,1,0,1,1,0,2h-7.2v17.3a1.09,1.09,0,0,1-1.12,1.22c-.69,0-1.09-.46-1.09-1.22V79.25H46.05a1,1,0,0,1-1.09-1,1,1,0,0,1,1.09-1H62.72Z" transform="translate(-1.65 -1.74)"/><path class="cls-1" d="M89.57,95.55a1,1,0,0,1,1.09,1,1,1,0,0,1-1.09,1H75.13a1.1,1.1,0,0,1-1.19-1.22V78.43a1.1,1.1,0,0,1,1.19-1.22H89.57a1,1,0,1,1,0,2H76.17v7.05H87.32a1,1,0,0,1,1.09,1,1,1,0,0,1-1.09,1H76.17v7.2h13.4Zm-3.89-24L82,75a.87.87,0,0,1-.58.21.75.75,0,0,1-.79-.79.83.83,0,0,1,.3-.67l3.56-3.56a.9.9,0,0,1,.7-.27.81.81,0,0,1,.85.85,1,1,0,0,1-.36.79Z" transform="translate(-1.65 -1.74)"/><path class="cls-1" d="M121.36,88.68c0,5.47-4.07,9.27-10,9.27A10.16,10.16,0,0,1,100.84,87.4c0-6.26,4.26-10.55,10.49-10.55a10.08,10.08,0,0,1,8.18,3.62,1.38,1.38,0,0,1,.3.82,1,1,0,0,1-1.06,1,1.05,1.05,0,0,1-.88-.43,8,8,0,0,0-6.54-3c-4.89,0-8.24,3.47-8.24,8.51s3.34,8.51,8.24,8.51c4.44,0,7.48-2.61,7.87-6.6h-5.35c-.7,0-1.12-.36-1.12-1a1,1,0,0,1,1.12-1h6.29a1.13,1.13,0,0,1,1.22,1.25v.15Z" transform="translate(-1.65 -1.74)"/><path class="cls-1" d="M149.42,95.79a1.39,1.39,0,0,1,.3.85,1.07,1.07,0,0,1-1.12,1.12,1.16,1.16,0,0,1-1-.52l-6.11-7.75h-6.81v7.05a1.09,1.09,0,0,1-1.12,1.22c-.69,0-1.09-.46-1.09-1.22V78.42a1.1,1.1,0,0,1,1.19-1.22H143c4.29,0,6.6,2.1,6.6,6,0,3.59-1.88,5.71-5.41,6.08v.06l5.29,6.41Zm-6.66-8.33c3,0,4.53-1.43,4.53-4.1s-1.55-4.1-4.53-4.1h-8.09v8.21h8.09Z" transform="translate(-1.65 -1.74)"/><path class="cls-1" d="M178.9,86.34V96.55a1.09,1.09,0,0,1-1.12,1.22c-.69,0-1.09-.46-1.09-1.22V91.17H162.8v5.41a1.09,1.09,0,1,1-2.18,0V86.34c0-6.14,3.28-9.48,9.15-9.48s9.15,3.34,9.15,9.48Zm-2.22-.06c0-4.89-2.43-7.39-7-7.39s-6.93,2.49-6.93,7.39v2.86h13.89Z" transform="translate(-1.65 -1.74)"/><path class="cls-1" d="M205.68,77.22a1,1,0,1,1,0,2h-7.2v17.3a1.09,1.09,0,0,1-1.12,1.22c-.69,0-1.09-.46-1.09-1.22V79.25H189a1,1,0,0,1-1.09-1,1,1,0,0,1,1.09-1h16.67Z" transform="translate(-1.65 -1.74)"/><path class="cls-1" d="M219.12,78.25v18.3A1.09,1.09,0,0,1,218,97.77c-.69,0-1.09-.46-1.09-1.22V78.25c0-.76.4-1.22,1.09-1.22A1.09,1.09,0,0,1,219.12,78.25Z" transform="translate(-1.65 -1.74)"/><path class="cls-1" d="M240.92,76.85c6.26,0,10.52,4.29,10.52,10.55S247.19,98,240.92,98s-10.49-4.29-10.49-10.55S234.69,76.85,240.92,76.85Zm0,19.06c4.89,0,8.27-3.46,8.27-8.51s-3.37-8.51-8.27-8.51-8.24,3.47-8.24,8.51S236,95.91,240.92,95.91Z" transform="translate(-1.65 -1.74)"/><path class="cls-1" d="M280.71,78.22V96.43a1.26,1.26,0,0,1-1.31,1.34,1.45,1.45,0,0,1-1.19-.55L265,80.72h-.06V96.59a1.09,1.09,0,1,1-2.18,0V78.41A1.24,1.24,0,0,1,264,77a1.45,1.45,0,0,1,1.19.55l13.25,16.5h.06V78.22a1.09,1.09,0,1,1,2.18,0Z" transform="translate(-1.65 -1.74)"/></svg>